<svg width="47" height="47" viewBox="0 0 47 47" fill="none" xmlns="http://www.w3.org/2000/svg">
<path d="M2 17.8421H45V42.7368C45 43.337 44.7616 43.9127 44.3371 44.3371C43.9127 44.7615 43.3371 45 42.7368 45H4.26316C3.66293 45 3.08729 44.7615 2.66286 44.3371C2.23844 43.9127 2 43.337 2 42.7368V17.8421ZM2 7.65787C2 7.05765 2.23844 6.482 2.66286 6.05758C3.08729 5.63315 3.66293 5.39471 4.26316 5.39471H42.7368C43.3371 5.39471 43.9127 5.63315 44.3371 6.05758C44.7616 6.482 45 7.05765 45 7.65787V17.8421H2V7.65787Z" stroke="white" stroke-width="3" stroke-linejoin="round"/>
<path d="M14.4473 31.4211L21.2367 38.2105L34.8157 24.6316" stroke="white" stroke-width="3" stroke-linecap="round" stroke-linejoin="round"/>
<path d="M32.5525 2V11.0526M14.4473 2V11.0526V2Z" stroke="white" stroke-width="3" stroke-linecap="round"/>
</svg>
