<svg width="24" height="24" viewBox="0 0 24 24" fill="none" xmlns="http://www.w3.org/2000/svg">
<g clip-path="url(#clip0_186_10)">
<path d="M5.34002 -7.42181e-06C4.63821 -0.00198716 3.94292 0.134785 3.29415 0.402444C2.64538 0.670102 2.05592 1.06337 1.55966 1.55963C1.0634 2.05589 0.670131 2.64535 0.402472 3.29412C0.134813 3.9429 -0.00195855 4.63818 2.11884e-05 5.33999V18.66C-0.00195855 19.3618 0.134813 20.0571 0.402472 20.7059C0.670131 21.3546 1.0634 21.9441 1.55966 22.4404C2.05592 22.9366 2.64538 23.3299 3.29415 23.5975C3.94292 23.8652 4.63821 24.002 5.34002 24H18.66C19.3618 24.002 20.0571 23.8652 20.7059 23.5975C21.3547 23.3299 21.9441 22.9366 22.4404 22.4404C22.9366 21.9441 23.3299 21.3546 23.5976 20.7059C23.8652 20.0571 24.002 19.3618 24 18.66V5.33999C24.002 4.63818 23.8652 3.9429 23.5976 3.29412C23.3299 2.64535 22.9366 2.05589 22.4404 1.55963C21.9441 1.06337 21.3547 0.670102 20.7059 0.402444C20.0571 0.134785 19.3618 -0.00198716 18.66 -7.42181e-06H5.34002ZM11.8628 2.56574C14.199 2.56574 16.3118 3.46874 17.922 5.15549C19.1453 6.42524 19.8323 7.77224 20.184 9.54674C20.3048 10.137 20.3048 11.7457 20.1908 12.4095C19.8173 14.52 18.661 16.4119 16.953 17.7067C16.344 18.168 14.8553 18.969 14.6168 18.969C14.5268 18.969 14.52 18.879 14.559 18.5077C14.6333 17.9137 14.703 17.793 15.039 17.652C15.5738 17.43 16.488 16.7767 17.0468 16.2187C18.0236 15.2422 18.7175 14.019 19.0545 12.6795C19.2653 11.8545 19.2375 10.0222 19.0073 9.17549C18.2805 6.47924 16.077 4.38674 13.3823 3.82349C12.6015 3.66374 11.175 3.66374 10.3823 3.82349C7.65527 4.38674 5.39702 6.58574 4.71002 9.35174C4.52627 10.1047 4.52627 11.9377 4.71002 12.6877C5.16677 14.52 6.35102 16.1985 7.90127 17.199C8.20652 17.4022 8.57327 17.6092 8.72627 17.6722C9.06152 17.8162 9.13652 17.9385 9.19802 18.5272C9.23702 18.891 9.22877 18.9922 9.14402 18.9922C9.08927 18.9922 8.67902 18.816 8.24477 18.609L8.20577 18.5782C5.73302 17.3632 4.15052 15.3052 3.57302 12.5662C3.43277 11.859 3.40502 10.176 3.54602 9.52724C3.90527 7.78499 4.59302 6.42599 5.73677 5.22299C7.38602 3.48374 9.50702 2.56574 11.8658 2.56574H11.8628ZM12 5.37899C12.3708 5.37811 12.7408 5.41328 13.1048 5.48399C15.891 6.10499 17.8628 8.89124 17.4795 11.6557C17.3273 12.7725 16.9448 13.6875 16.2653 14.5387C15.9293 14.9685 15.1125 15.6877 14.9685 15.6877C14.9445 15.6877 14.9213 15.414 14.9213 15.0855V14.4795L15.3353 13.9837C16.905 12.105 16.7925 9.47999 15.081 7.76174C14.4173 7.08974 13.647 6.69449 12.6548 6.51599C12.015 6.39524 11.8815 6.39524 11.2095 6.50774C10.1865 6.67199 9.39677 7.06574 8.69327 7.76174C6.97502 9.46499 6.86102 12.105 8.43227 13.9837L8.84627 14.4795V15.0892C8.84627 15.4252 8.81852 15.6945 8.78327 15.6945C8.75627 15.6945 8.52152 15.5347 8.27102 15.3352L8.23577 15.3232C7.40402 14.6595 6.66977 13.4835 6.36452 12.327C6.18152 11.628 6.18152 10.3042 6.37277 9.60824C6.87677 7.72949 8.26352 6.27224 10.182 5.58899C10.5923 5.44424 11.3138 5.36624 11.994 5.37824L12 5.37899ZM11.8673 8.36699C12.18 8.36699 12.4883 8.42999 12.7155 8.54699C13.1993 8.80124 13.6028 9.28874 13.7543 9.80474C14.2193 11.3827 12.5475 12.7657 11.031 12.0585H11.0198C10.305 11.7262 9.92177 11.1015 9.91352 10.2885C9.91352 9.55424 10.3193 8.91749 11.0265 8.54249C11.2493 8.42549 11.5583 8.36624 11.8703 8.36624L11.8673 8.36699ZM11.859 13.098C12.8483 13.0942 13.5623 13.4452 13.8278 14.0662C14.0265 14.5312 13.953 15.996 13.6088 18.3675C13.3785 20.0235 13.2495 20.4412 12.93 20.7232C12.4883 21.1132 11.8673 21.2235 11.2733 21.012H11.2703C10.5555 20.754 10.4025 20.406 10.1055 18.3667C9.76652 15.996 9.69152 14.5305 9.89177 14.0655C10.1528 13.4482 10.8638 13.1017 11.8598 13.0972L11.859 13.098Z" fill="white"/>
</g>
<defs>
<clipPath id="clip0_186_10">
<rect width="24" height="24" fill="white"/>
</clipPath>
</defs>
</svg>
